<?xml version="1.0" encoding="UTF-8"?>
<svg version="1.1" xmlns="http://www.w3.org/2000/svg" width="48" height="48">
<path d="M0 0 C0.73541016 0.00202423 1.47082031 0.00404846 2.22851562 0.00613403 C2.97939453 0.00517731 3.73027344 0.00422058 4.50390625 0.00323486 C6.09440189 0.00255315 7.6849003 0.00440682 9.27539062 0.00857544 C11.71816217 0.01392386 14.16074984 0.00863019 16.60351562 0.00222778 C18.1451827 0.00288857 19.68684966 0.00416973 21.22851562 0.00613403 C21.96392578 0.0041098 22.69933594 0.00208557 23.45703125 0 C28.61356402 0.02399493 28.61356402 0.02399493 29.72851562 1.13894653 C29.82961916 4.08430224 29.86820842 7.00572213 29.86132812 9.95144653 C29.86228485 10.83550171 29.86324158 11.71955688 29.86422729 12.63040161 C29.86490914 14.50336783 29.86305456 16.37633639 29.85888672 18.2492981 C29.85353852 21.12663041 29.85883156 24.00380661 29.86523438 26.88113403 C29.86457359 28.69623855 29.86329243 30.51134296 29.86132812 32.32644653 C29.86335236 33.19309937 29.86537659 34.0597522 29.86746216 34.95266724 C29.84346572 41.02399644 29.84346572 41.02399644 28.72851562 42.13894653 C26.21927409 42.23981865 23.73815179 42.27866686 21.22851562 42.27175903 C20.47763672 42.27271576 19.72675781 42.27367249 18.953125 42.2746582 C17.36262936 42.27533991 15.77213095 42.27348625 14.18164062 42.26931763 C11.73886908 42.2639692 9.29628141 42.26926287 6.85351562 42.27566528 C5.31184855 42.2750045 3.77018159 42.27372333 2.22851562 42.27175903 C1.49310547 42.27378326 0.75769531 42.2758075 0 42.27789307 C-5.15653277 42.25389814 -5.15653277 42.25389814 -6.27148438 41.13894653 C-6.37258791 38.19359083 -6.41117717 35.27217094 -6.40429688 32.32644653 C-6.4052536 31.44239136 -6.40621033 30.55833618 -6.40719604 29.64749146 C-6.40787789 27.77452524 -6.40602331 25.90155667 -6.40185547 24.02859497 C-6.39650727 21.15126266 -6.40180031 18.27408645 -6.40820312 15.39675903 C-6.40754234 13.58165452 -6.40626118 11.7665501 -6.40429688 9.95144653 C-6.40632111 9.0847937 -6.40834534 8.21814087 -6.41043091 7.32522583 C-6.38159591 0.02969552 -6.38159591 0.02969552 0 0 Z " fill="#3BB5E7" transform="translate(12.271484375,2.861053466796875)"/>
<path d="M0 0 C1.32 0 2.64 0 4 0 C4 13.86 4 27.72 4 42 C2.35 41.67 0.7 41.34 -1 41 C-1.02464705 35.32169922 -1.04283462 29.64342931 -1.05493164 23.96508789 C-1.05997256 22.03181415 -1.06680519 20.09854424 -1.07543945 18.1652832 C-1.08751565 15.39273128 -1.09323057 12.62022959 -1.09765625 9.84765625 C-1.10281754 8.97786636 -1.10797882 8.10807648 -1.11329651 7.21192932 C-1.11349185 5.14094186 -1.06208168 3.07005676 -1 1 C-0.67 0.67 -0.34 0.34 0 0 Z " fill="#0B66B0" transform="translate(7,3)"/>
<path d="M0 0 C0.9075 0.268125 1.815 0.53625 2.75 0.8125 C5 2 5 2 5.8125 4.125 C5.874375 4.74375 5.93625 5.3625 6 6 C4.02 6.99 4.02 6.99 2 8 C2.020625 9.134375 2.04125 10.26875 2.0625 11.4375 C2 15 2 15 1 16 C-0.8125 16.1328125 -0.8125 16.1328125 -3 16.125 C-3.721875 16.12757812 -4.44375 16.13015625 -5.1875 16.1328125 C-7 16 -7 16 -8 15 C-8.04092937 12.66702567 -8.04241723 10.33294775 -8 8 C-9.32 7.34 -10.64 6.68 -12 6 C-11.875 4.1875 -11.875 4.1875 -11 2 C-6.99759535 -0.63794852 -4.57449675 -1.52483225 0 0 Z " fill="#E2F5FC" transform="translate(27,16)"/>
<path d="M0 0 C0.99 0.33 1.98 0.66 3 1 C3 14.2 3 27.4 3 41 C1.02 41.495 1.02 41.495 -1 42 C-0.67 28.14 -0.34 14.28 0 0 Z " fill="#1883BD" transform="translate(39,3)"/>
</svg>
